<svg xmlns="http://www.w3.org/2000/svg" width="1393" height="602" fill="none"><rect width="1392" height="600" y="2" fill="#02C39A" fill-opacity=".09" rx="20"/><path stroke="#02C39A" stroke-opacity=".05" stroke-width="4" d="M1.5 128C10 130.5 158.5-9 260 74.5s280-3.5 344.5-73m62 598c8.5 2.5 208-185 375.5-102s308.5-71 346.5-113.5M3.5 354c58.5 61 156-91 317.5-27S707.5 18.5 851 108.5 1103.5 64 1134.5 4M27 600c94-57.5 178-212.5 299.5-81s216-279.5 355.5-163.5S965 159 1100 279s209.5-222 291.5-170"/></svg>